<svg width="25" height="21" viewBox="0 0 25 21" fill="none" xmlns="http://www.w3.org/2000/svg">
<path d="M12.0345 19.9504V19.9504L12.0287 19.9504C11.9362 19.9509 11.8445 19.9332 11.7588 19.8982C11.6735 19.8634 11.5959 19.8121 11.5304 19.7473C11.5301 19.7471 11.5298 19.7468 11.5296 19.7465L2.18555 10.3905C2.18531 10.3902 2.18507 10.39 2.18483 10.3898C1.10544 9.29871 0.5 7.82589 0.5 6.29111C0.5 4.75652 1.10528 3.2839 2.18441 2.19289C3.27222 1.10877 4.74542 0.5 6.28125 0.5C7.81742 0.5 9.29091 1.10902 10.3788 2.19357C10.379 2.19374 10.3791 2.19391 10.3793 2.19407L11.678 3.49281L12.0316 3.84636L12.3851 3.49281L13.6839 2.19407C13.684 2.19391 13.6842 2.19374 13.6844 2.19357C14.7723 1.10902 16.2458 0.5 17.7819 0.5C19.3178 0.5 20.791 1.10877 21.8788 2.1929C22.9579 3.28391 23.5632 4.75653 23.5632 6.29111C23.5632 7.8259 22.9577 9.29873 21.8783 10.3898C21.8781 10.39 21.8778 10.3903 21.8776 10.3905L12.5336 19.7465C12.5333 19.7468 12.5331 19.7471 12.5328 19.7473C12.4673 19.8121 12.3897 19.8634 12.3044 19.8982C12.2187 19.9332 12.127 19.9509 12.0345 19.9504Z" fill="#202329" stroke="#34AFF4"/>
</svg>
