<svg width="25" height="21" viewBox="0 0 25 21" fill="none" xmlns="http://www.w3.org/2000/svg">
<path d="M12.0345 20.4008V20.4008L12.0287 20.4008C11.9362 20.4014 11.8445 20.3836 11.7588 20.3487C11.6735 20.3138 11.5959 20.2625 11.5304 20.1978C11.5301 20.1975 11.5298 20.1972 11.5296 20.197L2.18555 10.8409C2.1853 10.8407 2.18505 10.8404 2.1848 10.8402C1.10543 9.74912 0.5 8.27632 0.5 6.74155C0.5 5.20698 1.10527 3.73437 2.18437 2.64336C3.27219 1.55922 4.7454 0.950439 6.28125 0.950439C7.81757 0.950439 9.29121 1.55959 10.3791 2.64434C10.3792 2.6444 10.3792 2.64446 10.3793 2.64451L11.678 3.94325L12.0316 4.2968L12.3851 3.94325L13.6839 2.64451C13.684 2.64434 13.6842 2.64418 13.6844 2.64401C14.7723 1.55946 16.2458 0.950439 17.7819 0.950439C19.3178 0.950439 20.791 1.55922 21.8788 2.64336C22.9579 3.73437 23.5632 5.20698 23.5632 6.74155C23.5632 8.27634 22.9577 9.74917 21.8783 10.8402C21.8781 10.8405 21.8778 10.8407 21.8776 10.8409L12.5336 20.197C12.5334 20.1972 12.5331 20.1974 12.5329 20.1977C12.4673 20.2625 12.3897 20.3138 12.3044 20.3487C12.2187 20.3836 12.127 20.4014 12.0345 20.4008Z" fill="#34AFF4" stroke="#34AFF4"/>
</svg>
