<svg width="222" height="23" viewBox="0 0 222 23" fill="none" xmlns="http://www.w3.org/2000/svg">
<path d="M0 0.394851H4.15906L10.8268 18.2947C11.0578 18.8541 11.4539 19.216 12.0481 19.216C12.7082 19.216 13.2034 18.7225 13.2034 17.9657V4.83691C13.2034 1.94134 14.8538 0 18.1216 0C21.0924 0 22.5448 1.5794 23.403 4.11302L28.8164 18.2947C29.0144 18.8541 29.4765 19.216 30.0377 19.216C30.6978 19.216 31.16 18.7225 31.16 17.9657V0.394851H35.088V18.1302C35.088 21.0587 33.4375 23 30.1367 23C27.1659 23 25.7466 21.4206 24.8884 18.887L19.475 4.70529C19.2769 4.14592 18.8148 3.75107 18.2207 3.75107C17.5605 3.75107 17.0984 4.24464 17.0984 5.03433V18.1302C17.0984 21.0587 15.4479 23 12.1471 23C9.17634 23 7.75698 21.4206 6.89876 18.887L0 0.394851Z" fill="#34AFF4"/>
<path d="M54.8298 0.394851H58.7248V9.44349H70.1127V0.394851H74.0407V22.6052H70.1127V13.3262H58.7248V22.6052H54.8298V0.394851Z" fill="#34AFF4"/>
<path d="M103.059 4.7382L95.9952 22.6052H91.7041L99.5271 2.86266C100.352 0.789699 101.871 0 104.214 0C106.525 0 108.043 0.789699 108.835 2.86266L116.361 22.6052H112.037L105.271 4.7382C105.073 4.21173 104.709 3.9814 104.181 3.9814C103.653 3.9814 103.29 4.21173 103.059 4.7382Z" fill="#34AFF4"/>
<path d="M133.961 0.394851H145.382C150.399 0.394851 152.545 3.48784 152.545 7.04149C152.545 10.3977 150.597 14.0172 145.382 14.0172H138.45C138.087 14.0172 137.889 14.1817 137.889 14.5765V22.6052H133.994V13.8197C133.994 11.319 135.05 10.299 137.493 10.299H145.514C147.725 10.299 148.617 8.78541 148.617 7.23891C148.617 5.62661 147.659 4.27754 145.547 4.27754H133.961V0.394851Z" fill="#34AFF4"/>
<path d="M170.558 0.394851H174.453V14.9056C174.453 17.0443 175.509 18.7225 179.008 18.7225H187.656V22.6052H178.777C172.868 22.6052 170.558 19.3805 170.558 14.9385V0.394851Z" fill="#34AFF4"/>
<path d="M200.115 0.394851H204.836L211.074 9.90415L217.379 0.394851H222L213.022 13.03V22.6052H209.094V13.03L200.115 0.394851Z" fill="#34AFF4"/>
</svg>
